<?xml version="1.0" encoding="utf-8"?>
<!-- Svg Vector Icons : http://www.onlinewebfonts.com/icon -->
<!DOCTYPE svg PUBLIC "-//W3C//DTD SVG 1.1//EN" "http://www.w3.org/Graphics/SVG/1.1/DTD/svg11.dtd">
<svg version="1.1" xmlns="http://www.w3.org/2000/svg" xmlns:xlink="http://www.w3.org/1999/xlink" x="0px" y="0px" viewBox="0 0 256 256" enable-background="new 0 0 256 256" xml:space="preserve">
<metadata> Svg Vector Icons : http://www.onlinewebfonts.com/icon </metadata>
<g><g><g><path fill="#000000" d="M118.1,9c-2.7,0.7-6.6,4.7-7.3,7.4c-0.7,2.5-0.3,5.2,1,7.4c1,1.6,1,1.6,0.1,2.1c-0.5,0.3-9,8.5-18.9,18.4l-18,17.9l-3.3-3.3c-4-4-5.6-5-8.4-5.4C57.6,52.6,52,57.3,52,63.2c0,3.1,1.1,5.1,5,9.1l3.8,4L43.5,93.7l-17.4,17.4l-1.9-0.9c-1.1-0.6-2.8-0.9-4.1-0.9c-6.5,0-11.9,7.4-9.7,13.4c0.6,1.5,60.7,61.9,62.7,63c2.2,1.2,6.1,0.9,8.5-0.5c3.7-2.1,6.3-6.9,5.6-10.2c-0.4-1.9-2.1-4.9-3.5-6.1l-1-0.9l17.4-17.4l17.4-17.4l56.7,56.7c53.4,53.4,56.9,56.7,59,57.2c4.5,1.2,8.9-0.4,11.4-4.3c1.1-1.6,1.3-2.4,1.3-5.2c0-2.6-0.2-3.6-1-4.9c-0.6-0.9-26.2-26.8-57-57.6l-56.1-56l17.9-18c9.8-9.9,18.1-18.4,18.4-18.9c0.4-0.8,0.6-0.8,2.7,1c2.7,2.3,4.7,3.1,7.8,2.8c4.2-0.4,8.5-4.4,9.1-8.6c0.7-4.7,1.9-3.2-31.2-36.5c-16.8-16.8-30.9-30.8-31.6-31.1C123.1,8.7,120.2,8.4,118.1,9z"/></g></g></g>
</svg>